<svg width="61.926" height="50.628" viewBox="0 0 61.926 50.628" xmlns="http://www.w3.org/2000/svg"><g id="svgGroup" stroke-linecap="round" fill-rule="nonzero" font-size="9pt" stroke="#000000" stroke-width=".5" fill="#000000" style="stroke:#000000;stroke-width:.5;fill:#000000"><path d="M 6.995 49.695 L 0 49.695 L 0 12.048 L 5.786 12.048 L 6.409 17.322 L 6.555 17.322 Q 9.229 14.758 12.268 12.927 Q 15.308 11.096 19.189 11.096 A 9.981 9.981 0 0 1 27.85 14.905 A 15.668 15.668 0 0 1 30.442 22.513 A 31.202 31.202 0 0 1 30.615 25.891 L 30.615 49.695 L 23.694 49.695 L 23.694 26.77 A 17.028 17.028 0 0 0 22.861 20.9 A 6.726 6.726 0 0 0 22.083 19.391 Q 20.471 17.102 16.846 17.102 A 8.874 8.874 0 0 0 11.902 18.53 A 30.686 30.686 0 0 0 6.995 22.705 L 6.995 49.695 Z M 43.616 37.793 L 43.616 17.725 L 38.123 17.725 L 38.123 12.378 L 44.019 12.048 L 44.824 0 L 50.61 0 L 50.61 12.048 L 60.718 12.048 L 60.718 17.725 L 50.61 17.725 L 50.61 37.866 A 9.118 9.118 0 0 0 51.91 43.176 A 5.038 5.038 0 0 0 56.323 45.007 Q 57.275 45.007 58.337 44.806 A 10.234 10.234 0 0 0 60.498 44.128 L 61.926 49.036 A 20.563 20.563 0 0 1 58.557 50.153 A 16.407 16.407 0 0 1 54.639 50.61 A 11.606 11.606 0 0 1 47.821 48.844 A 7.144 7.144 0 0 1 46.069 47.076 A 15.489 15.489 0 0 1 43.625 38.503 A 25.991 25.991 0 0 1 43.616 37.793 Z"/></g></svg>